<svg width="35" height="37" viewBox="0 0 35 37" fill="none" xmlns="http://www.w3.org/2000/svg">
<path d="M20.5778 18.5002C20.5778 19.11 20.4086 19.7061 20.0916 20.2132C19.7747 20.7202 19.3242 21.1154 18.7971 21.3488C18.27 21.5822 17.69 21.6432 17.1304 21.5242C16.5708 21.4053 16.0569 21.1116 15.6534 20.6804C15.25 20.2492 14.9753 19.6998 14.864 19.1017C14.7527 18.5036 14.8098 17.8836 15.0281 17.3202C15.2465 16.7568 15.6162 16.2753 16.0906 15.9365C16.5649 15.5977 17.1226 15.4168 17.6932 15.4168C18.4575 15.4194 19.1898 15.745 19.7303 16.3227C20.2707 16.9004 20.5754 17.6832 20.5778 18.5002ZM26.7076 14.2606V22.7397C26.7076 24.1708 26.1758 25.5433 25.2291 26.5552C24.2824 27.5671 22.9984 28.1356 21.6595 28.1356H13.7268C12.388 28.1356 11.104 27.5671 10.1573 26.5552C9.21056 25.5433 8.67871 24.1708 8.67871 22.7397V14.2606C8.67871 12.8295 9.21056 11.4571 10.1573 10.4451C11.104 9.43323 12.388 8.86475 13.7268 8.86475H21.6595C22.9984 8.86475 24.2824 9.43323 25.2291 10.4451C26.1758 11.4571 26.7076 12.8295 26.7076 14.2606ZM22.0201 18.5002C22.0201 17.5854 21.7663 16.6912 21.2909 15.9306C20.8154 15.1701 20.1397 14.5773 19.349 14.2272C18.5584 13.8772 17.6884 13.7856 16.849 13.964C16.0097 14.1425 15.2387 14.583 14.6336 15.2298C14.0284 15.8766 13.6163 16.7007 13.4494 17.5979C13.2824 18.495 13.3681 19.425 13.6956 20.2701C14.0231 21.1152 14.5777 21.8375 15.2892 22.3457C16.0008 22.8539 16.8374 23.1252 17.6932 23.1252C18.8407 23.1252 19.9413 22.6379 20.7528 21.7705C21.5642 20.9032 22.0201 19.7268 22.0201 18.5002ZM23.4624 13.4897C23.4624 13.2611 23.399 13.0375 23.2801 12.8474C23.1613 12.6572 22.9923 12.509 22.7946 12.4215C22.597 12.334 22.3795 12.3111 22.1696 12.3557C21.9598 12.4003 21.7671 12.5104 21.6158 12.6722C21.4645 12.8339 21.3615 13.0399 21.3197 13.2642C21.278 13.4885 21.2994 13.7209 21.3813 13.9322C21.4632 14.1435 21.6018 14.3241 21.7797 14.4511C21.9576 14.5782 22.1667 14.646 22.3807 14.646C22.6676 14.646 22.9427 14.5242 23.1456 14.3073C23.3485 14.0905 23.4624 13.7964 23.4624 13.4897Z" fill="black"/>
<path d="M34.5003 18.5C34.5003 28.473 26.9443 36.5 17.6925 36.5C8.44071 36.5 0.884766 28.473 0.884766 18.5C0.884766 8.52698 8.44071 0.5 17.6925 0.5C26.9443 0.5 34.5003 8.52698 34.5003 18.5Z" stroke="black"/>
</svg>
