<svg width="35" height="37" viewBox="0 0 35 37" fill="none" xmlns="http://www.w3.org/2000/svg">
<path d="M34.1155 18.5C34.1155 28.473 26.5596 36.5 17.3078 36.5C8.05594 36.5 0.5 28.473 0.5 18.5C0.5 8.52698 8.05594 0.5 17.3078 0.5C26.5596 0.5 34.1155 8.52698 34.1155 18.5Z" stroke="black"/>
<path d="M27.3655 12.3334C26.6251 12.6931 25.827 12.9295 25.0001 13.0426C25.8462 12.4978 26.5001 11.6345 26.8078 10.5964C26.0097 11.1103 25.1251 11.4701 24.1924 11.6756C23.4327 10.7917 22.3654 10.2778 21.1539 10.2778C18.8943 10.2778 17.0481 12.2512 17.0481 14.687C17.0481 15.0364 17.0866 15.3756 17.1539 15.6942C13.7308 15.5092 10.6827 13.7517 8.65385 11.0898C8.29808 11.7373 8.09616 12.4978 8.09616 13.2995C8.09616 14.8309 8.81731 16.1876 9.9327 16.9584C9.25001 16.9584 8.61539 16.7528 8.0577 16.4445V16.4753C8.0577 18.6131 9.48078 20.4014 11.3654 20.8023C10.7603 20.9793 10.1251 21.0039 9.50962 20.8742C9.77078 21.7504 10.2823 22.517 10.9721 23.0664C11.662 23.6158 12.4956 23.9202 13.3558 23.937C11.8977 25.1708 10.0904 25.8377 8.23077 25.8281C7.90385 25.8281 7.57692 25.8076 7.25 25.7664C9.07693 27.0203 11.25 27.7501 13.5769 27.7501C21.1539 27.7501 25.3174 21.0284 25.3174 15.2009C25.3174 15.0056 25.3174 14.8206 25.3078 14.6253C26.1155 14.0087 26.8078 13.2276 27.3655 12.3334Z" fill="black"/>
</svg>
