<svg width="36" height="37" viewBox="0 0 36 37" fill="none" xmlns="http://www.w3.org/2000/svg">
<path d="M34.8079 18.5C34.8079 28.473 27.252 36.5 18.0001 36.5C8.74832 36.5 1.19238 28.473 1.19238 18.5C1.19238 8.52698 8.74832 0.5 18.0001 0.5C27.252 0.5 34.8079 8.52698 34.8079 18.5Z" stroke="black"/>
<path d="M19.9232 20.0419H22.327L23.2886 15.9307H19.9232V13.8752C19.9232 12.8166 19.9232 11.8196 21.8463 11.8196H23.2886V8.3663C22.9751 8.32211 21.7915 8.22241 20.5414 8.22241C17.9309 8.22241 16.077 9.92544 16.077 13.053V15.9307H13.1924V20.0419H16.077V28.778H19.9232V20.0419Z" fill="black"/>
</svg>
