<svg width="146" height="12" viewBox="0 0 146 12" fill="none" xmlns="http://www.w3.org/2000/svg">
<path d="M8.764 0.368C9.8 0.508 10.6633 0.825333 11.354 1.32C12.054 1.81467 12.5673 2.43533 12.894 3.182C13.23 3.91933 13.37 4.736 13.314 5.632C13.2673 6.472 13.0713 7.27 12.726 8.026C12.39 8.782 11.9187 9.44933 11.312 10.028C10.7053 10.6067 9.982 11.0453 9.142 11.344C8.302 11.652 7.35467 11.778 6.3 11.722C5.24533 11.6753 4.09267 11.3953 2.842 10.882L2.786 10.742C3.738 11.1247 4.64333 11.33 5.502 11.358C6.36067 11.386 7.14933 11.2647 7.868 10.994C8.58667 10.7233 9.212 10.3267 9.744 9.804C10.2853 9.28133 10.7193 8.66067 11.046 7.942C11.3727 7.22333 11.5687 6.43467 11.634 5.576C11.7087 4.736 11.6387 3.994 11.424 3.35C11.2093 2.69667 10.8733 2.16 10.416 1.74C9.95867 1.32 9.38933 1.04933 8.708 0.928C8.13867 0.825333 7.56 0.820666 6.972 0.913999C6.39333 0.997999 5.82867 1.18933 5.278 1.488C4.73667 1.78667 4.23267 2.188 3.766 2.692C3.30867 3.196 2.912 3.812 2.576 4.54C2.36133 5.00667 2.198 5.46867 2.086 5.926C1.974 6.38333 1.918 6.79867 1.918 7.172C1.92733 7.54533 2.002 7.84867 2.142 8.082C2.29133 8.306 2.51067 8.42267 2.8 8.432C3.052 8.432 3.29933 8.348 3.542 8.18C3.78467 8.012 4.018 7.79733 4.242 7.536C4.466 7.27467 4.676 6.99933 4.872 6.71C5.07733 6.42067 5.26867 6.15933 5.446 5.926L7.224 3.504C7.224 3.504 7.28 3.434 7.392 3.294C7.504 3.154 7.62067 3 7.742 2.832C7.87267 2.65467 7.95667 2.51933 7.994 2.426H8.092L7.896 3.406L6.02 6.08C5.56267 6.724 5.16133 7.26067 4.816 7.69C4.47067 8.11 4.13933 8.42733 3.822 8.642C3.514 8.85667 3.17333 8.96867 2.8 8.978C2.352 8.99667 1.95067 8.894 1.596 8.67C1.25067 8.43667 0.98 8.11467 0.784 7.704C0.588 7.284 0.49 6.79867 0.49 6.248C0.499333 5.69733 0.634667 5.10467 0.896 4.47C1.19467 3.76067 1.60533 3.126 2.128 2.566C2.65067 2.006 3.25733 1.544 3.948 1.18C4.648 0.815999 5.404 0.559333 6.216 0.409999C7.03733 0.260666 7.88667 0.246666 8.764 0.368ZM7.644 6.668L7.476 7.102H4.844L5.012 6.668H7.644ZM9.03 8.082C9.06733 8.31533 9.13267 8.48333 9.226 8.586C9.32867 8.68867 9.45 8.74 9.59 8.74C9.58067 8.74 9.59 8.74 9.618 8.74C9.646 8.74 9.66 8.74 9.66 8.74L9.632 8.838H6.748L6.762 8.74H6.86C6.972 8.74 7.10267 8.684 7.252 8.572C7.40133 8.45067 7.462 8.28733 7.434 8.082H9.03ZM8.092 2.426L9.142 8.782H7.518L7.014 4.162L8.092 2.426ZM19.5333 0.199999C20.6346 0.199999 21.5866 0.400666 22.3893 0.802C23.1919 1.194 23.8079 1.75867 24.2373 2.496C24.6759 3.224 24.8953 4.092 24.8953 5.1C24.8953 6.108 24.6759 6.98067 24.2373 7.718C23.8079 8.446 23.1919 9.01067 22.3893 9.412C21.5866 9.804 20.6346 10 19.5333 10H16.2013L16.1873 9.412C16.4579 9.412 16.7379 9.412 17.0273 9.412C17.3259 9.412 17.6153 9.412 17.8953 9.412C18.1753 9.412 18.4226 9.412 18.6373 9.412C18.8613 9.412 19.0386 9.412 19.1693 9.412C19.2999 9.412 19.3653 9.412 19.3653 9.412C20.0373 9.412 20.6159 9.23933 21.1013 8.894C21.5866 8.53933 21.9599 8.04 22.2213 7.396C22.4826 6.752 22.6133 5.98667 22.6133 5.1C22.6133 4.21333 22.4826 3.448 22.2213 2.804C21.9599 2.16 21.5866 1.66533 21.1013 1.32C20.6159 0.965333 20.0373 0.787999 19.3653 0.787999C19.3653 0.787999 19.2953 0.787999 19.1553 0.787999C19.0246 0.787999 18.8426 0.787999 18.6093 0.787999C18.3759 0.787999 18.1146 0.787999 17.8253 0.787999C17.5359 0.787999 17.2373 0.787999 16.9293 0.787999C16.6213 0.787999 16.3273 0.787999 16.0473 0.787999V0.199999H19.5333ZM17.6293 0.199999V10H15.5293V0.199999H17.6293ZM15.5713 8.978V10H14.4513V9.86C14.4513 9.86 14.4793 9.86 14.5353 9.86C14.6006 9.86 14.6333 9.86 14.6333 9.86C14.8759 9.86 15.0813 9.776 15.2493 9.608C15.4266 9.43067 15.5199 9.22067 15.5293 8.978H15.5713ZM15.5713 1.222H15.5293C15.5293 0.979333 15.4406 0.773999 15.2633 0.606C15.0859 0.428666 14.8759 0.339999 14.6333 0.339999C14.6333 0.339999 14.6053 0.339999 14.5493 0.339999C14.4933 0.339999 14.4653 0.339999 14.4653 0.339999L14.4513 0.199999H15.5713V1.222ZM28.6546 1.6V10H26.6386V1.6H28.6546ZM31.9306 9.44L32.2526 10H28.6266V9.44H31.9306ZM31.4546 5.562V6.122H28.6266V5.562H31.4546ZM32.0846 1.6V2.16H28.6266V1.6H32.0846ZM32.8266 7.424L32.2946 10H29.8726L30.3066 9.44C30.7079 9.44 31.0626 9.36067 31.3706 9.202C31.6879 9.034 31.9586 8.80067 32.1826 8.502C32.4066 8.194 32.5793 7.83467 32.7006 7.424H32.8266ZM31.4546 6.094V7.326H31.3146V7.214C31.3146 6.906 31.2166 6.64933 31.0206 6.444C30.8339 6.23867 30.5773 6.13133 30.2506 6.122V6.094H31.4546ZM31.4546 4.358V5.59H30.2506V5.562C30.5773 5.55267 30.8339 5.44533 31.0206 5.24C31.2166 5.02533 31.3146 4.764 31.3146 4.456V4.358H31.4546ZM32.0846 2.132V3.616H31.9446V3.49C31.9446 3.07933 31.8326 2.75733 31.6086 2.524C31.3939 2.29067 31.0813 2.16933 30.6706 2.16V2.132H32.0846ZM32.0846 1.39V1.726L30.6146 1.6C30.8853 1.6 31.1699 1.57667 31.4686 1.53C31.7673 1.474 31.9726 1.42733 32.0846 1.39ZM26.6666 9.118L26.7366 10H25.7006V9.86C25.7006 9.86 25.7286 9.86 25.7846 9.86C25.8406 9.86 25.8733 9.86 25.8826 9.86C26.0879 9.86 26.2606 9.79 26.4006 9.65C26.5499 9.50067 26.6293 9.32333 26.6386 9.118H26.6666ZM26.6666 2.482H26.6386C26.6293 2.26733 26.5499 2.09 26.4006 1.95C26.2606 1.81 26.0879 1.74 25.8826 1.74C25.8733 1.74 25.8406 1.74 25.7846 1.74C25.7286 1.74 25.7006 1.74 25.7006 1.74V1.6H26.7366L26.6666 2.482ZM36.459 1.418C36.6456 1.418 36.8696 1.42733 37.131 1.446C37.4016 1.46467 37.6676 1.488 37.929 1.516C38.1903 1.53467 38.419 1.56267 38.615 1.6C38.8203 1.628 38.9603 1.656 39.035 1.684L38.853 3.392H38.727C38.727 2.96267 38.5776 2.622 38.279 2.37C37.9803 2.118 37.551 1.992 36.991 1.992C36.543 1.992 36.179 2.09 35.899 2.286C35.6283 2.482 35.4836 2.74333 35.465 3.07C35.4463 3.238 35.4743 3.392 35.549 3.532C35.633 3.66267 35.745 3.77933 35.885 3.882C36.0343 3.98467 36.1976 4.08733 36.375 4.19L38.573 5.548C38.9463 5.73467 39.2403 6.00533 39.455 6.36C39.6696 6.71467 39.763 7.144 39.735 7.648C39.707 8.17067 39.553 8.62333 39.273 9.006C39.0023 9.38867 38.6243 9.68267 38.139 9.888C37.663 10.084 37.0983 10.182 36.445 10.182C36.0436 10.182 35.6703 10.1493 35.325 10.084C34.9796 10.0187 34.681 9.93 34.429 9.818C34.1863 9.706 33.9996 9.58 33.869 9.44C33.7943 9.25333 33.7616 9.02933 33.771 8.768C33.7803 8.49733 33.8223 8.23133 33.897 7.97C33.9716 7.69933 34.065 7.47533 34.177 7.298H34.289C34.261 7.718 34.3356 8.10533 34.513 8.46C34.6996 8.81467 34.9703 9.09933 35.325 9.314C35.6796 9.51933 36.1043 9.622 36.599 9.622C37.1403 9.622 37.5463 9.496 37.817 9.244C38.0876 8.992 38.223 8.698 38.223 8.362C38.223 8.11 38.139 7.886 37.971 7.69C37.8123 7.48467 37.5463 7.284 37.173 7.088L35.185 5.828C34.7183 5.58533 34.3776 5.26333 34.163 4.862C33.9576 4.46067 33.883 4.022 33.939 3.546C33.9856 3.098 34.1163 2.71533 34.331 2.398C34.555 2.08067 34.849 1.838 35.213 1.67C35.577 1.502 35.9923 1.418 36.459 1.418ZM39.035 1.544L39.021 1.796H37.523V1.544H39.035ZM43.722 1.6V10H41.706V1.6H43.722ZM41.748 9.118V10H40.726V9.86C40.726 9.86 40.754 9.86 40.81 9.86C40.866 9.86 40.8987 9.86 40.908 9.86C41.1227 9.86 41.3093 9.79 41.468 9.65C41.6267 9.50067 41.706 9.32333 41.706 9.118H41.748ZM43.694 9.118H43.722C43.7313 9.32333 43.8107 9.50067 43.96 9.65C44.1187 9.79 44.31 9.86 44.534 9.86C44.534 9.86 44.5573 9.86 44.604 9.86C44.66 9.86 44.6927 9.86 44.702 9.86V10H43.694V9.118ZM43.694 2.482V1.6H44.702L44.688 1.74C44.688 1.74 44.6647 1.74 44.618 1.74C44.5713 1.74 44.5433 1.74 44.534 1.74C44.31 1.74 44.1187 1.81 43.96 1.95C43.8107 2.09 43.7313 2.26733 43.722 2.482H43.694ZM41.748 2.482H41.706C41.706 2.26733 41.6267 2.09 41.468 1.95C41.3093 1.81 41.118 1.74 40.894 1.74C40.894 1.74 40.866 1.74 40.81 1.74C40.754 1.74 40.726 1.74 40.726 1.74V1.6H41.748V2.482ZM50.2288 1.418C50.6582 1.418 51.0875 1.446 51.5168 1.502C51.9555 1.54867 52.3615 1.62333 52.7348 1.726C53.1175 1.81933 53.4395 1.93133 53.7008 2.062V4.288H53.5888C53.4395 3.69067 53.2155 3.224 52.9168 2.888C52.6275 2.552 52.2915 2.314 51.9088 2.174C51.5262 2.034 51.1108 1.964 50.6628 1.964C50.0095 1.964 49.4588 2.118 49.0108 2.426C48.5628 2.734 48.2222 3.182 47.9888 3.77C47.7648 4.34867 47.6528 5.04867 47.6528 5.87C47.6528 6.64467 47.7555 7.312 47.9608 7.872C48.1662 8.432 48.4695 8.866 48.8708 9.174C49.2722 9.482 49.7575 9.636 50.3268 9.636C50.6255 9.636 50.9102 9.58933 51.1808 9.496C51.4515 9.39333 51.6895 9.24867 51.8948 9.062C52.1002 8.866 52.2448 8.628 52.3288 8.348L52.3428 6.668C52.3428 6.48133 52.2868 6.34133 52.1748 6.248C52.0722 6.15467 51.9228 6.108 51.7268 6.108H51.5308V5.982H55.1288V6.108H54.9468C54.5362 6.108 54.3355 6.29467 54.3448 6.668V8.53C54.1488 8.79133 53.8455 9.048 53.4348 9.3C53.0242 9.552 52.5388 9.762 51.9788 9.93C51.4188 10.098 50.8075 10.182 50.1448 10.182C49.2115 10.1727 48.3995 9.99533 47.7088 9.65C47.0182 9.29533 46.4815 8.79133 46.0988 8.138C45.7162 7.48467 45.5248 6.70067 45.5248 5.786C45.5248 4.87133 45.7162 4.092 46.0988 3.448C46.4815 2.79467 47.0228 2.29533 47.7228 1.95C48.4228 1.59533 49.2582 1.418 50.2288 1.418ZM56.5494 1.404L64.7674 8.628L64.9074 10.182L56.7034 2.958L56.5494 1.404ZM56.6054 9.146V10H55.5694V9.86C55.5694 9.86 55.6067 9.86 55.6814 9.86C55.7561 9.86 55.7934 9.86 55.7934 9.86C56.0081 9.86 56.1901 9.79467 56.3394 9.664C56.4887 9.524 56.5634 9.35133 56.5634 9.146H56.6054ZM58.4814 9.146C58.4907 9.35133 58.5701 9.524 58.7194 9.664C58.8687 9.79467 59.0461 9.86 59.2514 9.86C59.2514 9.86 59.2887 9.86 59.3634 9.86C59.4474 9.86 59.4894 9.86 59.4894 9.86V10H58.4534V9.146H58.4814ZM56.5494 1.404L58.4814 3.504V10H56.5634V3C56.5634 2.524 56.5401 2.14133 56.4934 1.852C56.4467 1.55333 56.4234 1.404 56.4234 1.404H56.5494ZM64.8934 1.6V8.544C64.8934 8.87067 64.9027 9.16 64.9214 9.412C64.9494 9.65467 64.9727 9.846 64.9914 9.986C65.0194 10.1167 65.0334 10.182 65.0334 10.182H64.9074L62.9754 7.956V1.6H64.8934ZM64.8514 2.454V1.6H65.9014V1.74C65.9014 1.74 65.8594 1.74 65.7754 1.74C65.7007 1.74 65.6634 1.74 65.6634 1.74C65.4581 1.74 65.2761 1.81 65.1174 1.95C64.9681 2.08067 64.8934 2.24867 64.8934 2.454H64.8514ZM62.9754 2.454C62.9661 2.24867 62.8867 2.08067 62.7374 1.95C62.5974 1.81 62.4201 1.74 62.2054 1.74C62.2054 1.74 62.1634 1.74 62.0794 1.74C62.0047 1.74 61.9674 1.74 61.9674 1.74V1.6H63.0034V2.454H62.9754ZM71.6315 1.6H73.9555C74.3195 1.6 74.6882 1.628 75.0615 1.684C75.4349 1.74 75.7755 1.84267 76.0835 1.992C76.3915 2.14133 76.6389 2.35133 76.8255 2.622C77.0122 2.89267 77.1055 3.24733 77.1055 3.686C77.1055 4.04067 77.0309 4.344 76.8815 4.596C76.7322 4.848 76.5409 5.044 76.3075 5.184C76.0742 5.324 75.8269 5.40333 75.5655 5.422C75.9762 5.45 76.3449 5.55733 76.6715 5.744C76.9982 5.93067 77.2595 6.18267 77.4555 6.5C77.6609 6.808 77.7635 7.17667 77.7635 7.606C77.7635 8.04467 77.6702 8.418 77.4835 8.726C77.2969 9.02467 77.0402 9.272 76.7135 9.468C76.3869 9.65467 76.0089 9.79 75.5795 9.874C75.1595 9.958 74.7162 10 74.2495 10H72.9895C72.9895 10 72.9895 9.95333 72.9895 9.86C72.9895 9.76667 72.9895 9.67333 72.9895 9.58C72.9895 9.48667 72.9895 9.44 72.9895 9.44H73.6615C73.9975 9.44 74.3009 9.37933 74.5715 9.258C74.8515 9.12733 75.0755 8.91733 75.2435 8.628C75.4115 8.33867 75.4955 7.956 75.4955 7.48C75.4955 7.15333 75.4442 6.86867 75.3415 6.626C75.2482 6.374 75.1129 6.17333 74.9355 6.024C74.7582 5.86533 74.5482 5.74867 74.3055 5.674C74.0629 5.59933 73.7969 5.562 73.5075 5.562V5.436C73.7129 5.436 73.9089 5.408 74.0955 5.352C74.2822 5.28667 74.4409 5.19333 74.5715 5.072C74.7115 4.94133 74.8189 4.77333 74.8935 4.568C74.9775 4.36267 75.0195 4.11533 75.0195 3.826C75.0195 3.20067 74.8749 2.76667 74.5855 2.524C74.2962 2.272 73.9322 2.146 73.4935 2.146H71.7575C71.7575 2.13667 71.7435 2.09 71.7155 2.006C71.6969 1.91267 71.6782 1.824 71.6595 1.74C71.6409 1.64667 71.6315 1.6 71.6315 1.6ZM73.0875 1.6V10H71.0995V1.6H73.0875ZM71.1415 9.118V10H70.1895V9.86C70.1989 9.86 70.2222 9.86 70.2595 9.86C70.3062 9.86 70.3342 9.86 70.3435 9.86C70.5675 9.86 70.7495 9.79 70.8895 9.65C71.0389 9.50067 71.1089 9.32333 71.0995 9.118H71.1415ZM71.1415 2.482H71.0995C71.1089 2.258 71.0389 2.08067 70.8895 1.95C70.7495 1.81 70.5675 1.74 70.3435 1.74C70.3342 1.74 70.3062 1.74 70.2595 1.74C70.2222 1.74 70.1989 1.74 70.1895 1.74V1.6H71.1415V2.482ZM80.6463 1.614L83.2783 6.164L81.4163 6.374L78.3503 1.614H80.6463ZM83.3623 6.192V10H81.3463V6.22L83.3623 6.192ZM85.3503 1.614H86.3863L83.2223 6.472L82.5643 6.346L85.3503 1.614ZM84.8463 2.468C84.949 2.29067 84.949 2.12733 84.8463 1.978C84.7437 1.81933 84.6037 1.74 84.4263 1.74C84.4263 1.74 84.3983 1.74 84.3423 1.74C84.2863 1.74 84.2583 1.74 84.2583 1.74V1.6H87.2683V1.74H87.0863C86.8343 1.74 86.5963 1.81 86.3723 1.95C86.1577 2.08067 85.985 2.23933 85.8543 2.426L84.8463 2.468ZM81.1363 2.468L78.8683 2.426C78.7377 2.23 78.565 2.06667 78.3503 1.936C78.1357 1.80533 77.8977 1.74 77.6363 1.74H77.4683V1.6H81.7243V1.74C81.7243 1.74 81.6963 1.74 81.6403 1.74C81.5937 1.74 81.5703 1.74 81.5703 1.74C81.3837 1.74 81.239 1.81933 81.1363 1.978C81.043 2.13667 81.043 2.3 81.1363 2.468ZM81.3883 9.118V10H80.3943V9.86C80.4037 9.86 80.4317 9.86 80.4783 9.86C80.5343 9.86 80.5623 9.86 80.5623 9.86C80.777 9.86 80.959 9.79 81.1083 9.65C81.2577 9.50067 81.337 9.32333 81.3463 9.118H81.3883ZM83.3343 9.118H83.3623C83.3717 9.32333 83.451 9.50067 83.6003 9.65C83.759 9.79 83.941 9.86 84.1463 9.86C84.1463 9.86 84.1743 9.86 84.2303 9.86C84.2863 9.86 84.3143 9.86 84.3143 9.86V10H83.3343V9.118ZM93.9287 0.199999H95.7347C96.1547 0.199999 96.5654 0.246666 96.9667 0.339999C97.3681 0.433333 97.7227 0.582666 98.0307 0.787999C98.3481 0.993333 98.6001 1.264 98.7867 1.6C98.9734 1.936 99.0667 2.35133 99.0667 2.846C99.0667 3.238 98.9827 3.63 98.8147 4.022C98.6561 4.40467 98.4087 4.736 98.0727 5.016C97.7367 5.28667 97.3027 5.45 96.7707 5.506C97.0694 5.59933 97.3401 5.76733 97.5827 6.01C97.8347 6.25267 98.0401 6.49533 98.1987 6.738C98.2081 6.75667 98.2594 6.84067 98.3527 6.99C98.4554 7.13933 98.5767 7.326 98.7167 7.55C98.8661 7.76467 99.0201 7.984 99.1787 8.208C99.3374 8.432 99.4821 8.628 99.6127 8.796C99.8181 9.048 100.005 9.25333 100.173 9.412C100.341 9.56133 100.518 9.67333 100.705 9.748C100.891 9.81333 101.106 9.85067 101.349 9.86V10H99.9767C99.4727 10 99.0154 9.958 98.6047 9.874C98.1941 9.78067 97.8301 9.62667 97.5127 9.412C97.1954 9.19733 96.9201 8.908 96.6867 8.544C96.6121 8.432 96.5281 8.292 96.4347 8.124C96.3507 7.94667 96.2621 7.76 96.1687 7.564C96.0754 7.368 95.9821 7.18133 95.8887 7.004C95.8047 6.81733 95.7301 6.64933 95.6647 6.5C95.5994 6.35067 95.5527 6.234 95.5247 6.15C95.4034 5.85133 95.2587 5.62733 95.0907 5.478C94.9321 5.32867 94.7594 5.24 94.5727 5.212V5.072C94.6007 5.072 94.6567 5.072 94.7407 5.072C94.8247 5.072 94.9134 5.072 95.0067 5.072C95.2587 5.072 95.5014 5.02067 95.7347 4.918C95.9774 4.81533 96.1921 4.64733 96.3787 4.414C96.5654 4.18067 96.6961 3.85867 96.7707 3.448C96.7894 3.364 96.8034 3.266 96.8127 3.154C96.8314 3.042 96.8361 2.916 96.8267 2.776C96.7987 2.104 96.6307 1.614 96.3227 1.306C96.0147 0.988666 95.6321 0.825333 95.1747 0.816C95.0441 0.806667 94.8994 0.806667 94.7407 0.816C94.5914 0.816 94.4514 0.816 94.3207 0.816C94.1994 0.816 94.1154 0.816 94.0687 0.816C94.0687 0.806667 94.0547 0.755333 94.0267 0.661999C94.0081 0.559333 93.9847 0.456666 93.9567 0.354C93.9381 0.251333 93.9287 0.199999 93.9287 0.199999ZM94.1107 0.199999V10H92.0107V0.199999H94.1107ZM92.0527 8.978V10H90.9327V9.86C90.9421 9.86 90.9701 9.86 91.0167 9.86C91.0727 9.86 91.1054 9.86 91.1147 9.86C91.3574 9.86 91.5627 9.776 91.7307 9.608C91.9081 9.43067 92.0014 9.22067 92.0107 8.978H92.0527ZM92.0527 1.222H92.0107C92.0014 0.979333 91.9081 0.773999 91.7307 0.606C91.5627 0.428666 91.3574 0.339999 91.1147 0.339999C91.1054 0.339999 91.0727 0.339999 91.0167 0.339999C90.9701 0.339999 90.9421 0.339999 90.9327 0.339999V0.199999H92.0527V1.222ZM94.0687 8.978H94.1107C94.1107 9.22067 94.1994 9.43067 94.3767 9.608C94.5541 9.776 94.7641 9.86 95.0067 9.86C95.0254 9.86 95.0581 9.86 95.1047 9.86C95.1514 9.86 95.1747 9.86 95.1747 9.86V10H94.0687V8.978ZM104.028 1.6V10H102.012V1.6H104.028ZM107.304 9.44L107.626 10H104V9.44H107.304ZM106.828 5.562V6.122H104V5.562H106.828ZM107.458 1.6V2.16H104V1.6H107.458ZM108.2 7.424L107.668 10H105.246L105.68 9.44C106.081 9.44 106.436 9.36067 106.744 9.202C107.061 9.034 107.332 8.80067 107.556 8.502C107.78 8.194 107.952 7.83467 108.074 7.424H108.2ZM106.828 6.094V7.326H106.688V7.214C106.688 6.906 106.59 6.64933 106.394 6.444C106.207 6.23867 105.95 6.13133 105.624 6.122V6.094H106.828ZM106.828 4.358V5.59H105.624V5.562C105.95 5.55267 106.207 5.44533 106.394 5.24C106.59 5.02533 106.688 4.764 106.688 4.456V4.358H106.828ZM107.458 2.132V3.616H107.318V3.49C107.318 3.07933 107.206 2.75733 106.982 2.524C106.767 2.29067 106.454 2.16933 106.044 2.16V2.132H107.458ZM107.458 1.39V1.726L105.988 1.6C106.258 1.6 106.543 1.57667 106.842 1.53C107.14 1.474 107.346 1.42733 107.458 1.39ZM102.04 9.118L102.11 10H101.074V9.86C101.074 9.86 101.102 9.86 101.158 9.86C101.214 9.86 101.246 9.86 101.256 9.86C101.461 9.86 101.634 9.79 101.774 9.65C101.923 9.50067 102.002 9.32333 102.012 9.118H102.04ZM102.04 2.482H102.012C102.002 2.26733 101.923 2.09 101.774 1.95C101.634 1.81 101.461 1.74 101.256 1.74C101.246 1.74 101.214 1.74 101.158 1.74C101.102 1.74 101.074 1.74 101.074 1.74V1.6H102.11L102.04 2.482ZM113.008 10.182L108.892 1.67H111.272L113.82 7.606L113.008 10.182ZM113.008 10.182L112.952 8.544L115.99 1.642H117.012L113.778 8.474C113.759 8.52067 113.717 8.61867 113.652 8.768C113.587 8.908 113.517 9.07133 113.442 9.258C113.367 9.43533 113.297 9.608 113.232 9.776C113.176 9.944 113.143 10.0793 113.134 10.182H113.008ZM115.598 2.524C115.701 2.272 115.687 2.076 115.556 1.936C115.435 1.796 115.29 1.726 115.122 1.726H115.024V1.6H117.81V1.74C117.81 1.74 117.791 1.74 117.754 1.74C117.717 1.74 117.698 1.74 117.698 1.74C117.511 1.74 117.315 1.80067 117.11 1.922C116.905 2.034 116.732 2.23467 116.592 2.524H115.598ZM111.636 2.524H109.312C109.172 2.23467 108.999 2.034 108.794 1.922C108.598 1.80067 108.407 1.74 108.22 1.74C108.22 1.74 108.206 1.74 108.178 1.74C108.141 1.74 108.122 1.74 108.122 1.74V1.6H112.224V1.726H112.112C111.963 1.726 111.823 1.796 111.692 1.936C111.561 2.076 111.543 2.272 111.636 2.524ZM120.499 1.222L124.643 9.93H122.277L119.673 3.784L120.499 1.222ZM117.867 9.076C117.765 9.328 117.779 9.524 117.909 9.664C118.04 9.79467 118.185 9.86 118.343 9.86H118.455V10H115.655V9.86C115.655 9.86 115.674 9.86 115.711 9.86C115.749 9.86 115.767 9.86 115.767 9.86C115.954 9.86 116.15 9.804 116.355 9.692C116.561 9.57067 116.729 9.36533 116.859 9.076H117.867ZM120.499 1.222L120.527 2.902L117.489 9.958H116.453L119.729 2.916C119.748 2.86 119.79 2.762 119.855 2.622C119.921 2.47267 119.991 2.30933 120.065 2.132C120.14 1.94533 120.21 1.77267 120.275 1.614C120.341 1.446 120.378 1.31533 120.387 1.222H120.499ZM121.717 7.256V7.802H118.147V7.256H121.717ZM121.927 9.076H124.237C124.377 9.36533 124.55 9.57067 124.755 9.692C124.961 9.804 125.157 9.86 125.343 9.86C125.343 9.86 125.362 9.86 125.399 9.86C125.437 9.86 125.455 9.86 125.455 9.86V10H121.339V9.86H121.451C121.61 9.86 121.755 9.79467 121.885 9.664C122.016 9.524 122.03 9.328 121.927 9.076ZM129.431 1.642V10H127.401V1.642H129.431ZM132.483 1.586V2.146H124.363V1.586H132.483ZM132.483 2.104V3.588H132.329V3.462C132.338 3.06067 132.226 2.74333 131.993 2.51C131.769 2.27667 131.456 2.15533 131.055 2.146V2.104H132.483ZM132.483 1.376V1.726L130.999 1.586C131.176 1.586 131.367 1.57667 131.573 1.558C131.778 1.53 131.965 1.502 132.133 1.474C132.301 1.43667 132.417 1.404 132.483 1.376ZM127.429 9.118V10H126.491V9.86C126.491 9.86 126.514 9.86 126.561 9.86C126.617 9.86 126.645 9.86 126.645 9.86C126.85 9.86 127.023 9.79 127.163 9.65C127.312 9.50067 127.391 9.32333 127.401 9.118H127.429ZM129.389 9.118H129.431C129.431 9.32333 129.505 9.50067 129.655 9.65C129.804 9.79 129.986 9.86 130.201 9.86C130.201 9.86 130.224 9.86 130.271 9.86C130.327 9.86 130.355 9.86 130.355 9.86V10H129.389V9.118ZM125.791 2.104V2.146C125.38 2.15533 125.063 2.27667 124.839 2.51C124.624 2.74333 124.517 3.06067 124.517 3.462V3.588H124.363V2.104H125.791ZM124.363 1.376C124.447 1.39467 124.568 1.42267 124.727 1.46C124.895 1.49733 125.077 1.53 125.273 1.558C125.478 1.57667 125.665 1.586 125.833 1.586L124.363 1.726V1.376ZM138.058 1.642V10H136.028V1.642H138.058ZM141.11 1.586V2.146H132.99V1.586H141.11ZM141.11 2.104V3.588H140.956V3.462C140.965 3.06067 140.853 2.74333 140.62 2.51C140.396 2.27667 140.083 2.15533 139.682 2.146V2.104H141.11ZM141.11 1.376V1.726L139.626 1.586C139.803 1.586 139.994 1.57667 140.2 1.558C140.405 1.53 140.592 1.502 140.76 1.474C140.928 1.43667 141.044 1.404 141.11 1.376ZM136.056 9.118V10H135.118V9.86C135.118 9.86 135.141 9.86 135.188 9.86C135.244 9.86 135.272 9.86 135.272 9.86C135.477 9.86 135.65 9.79 135.79 9.65C135.939 9.50067 136.018 9.32333 136.028 9.118H136.056ZM138.016 9.118H138.058C138.058 9.32333 138.132 9.50067 138.282 9.65C138.431 9.79 138.613 9.86 138.828 9.86C138.828 9.86 138.851 9.86 138.898 9.86C138.954 9.86 138.982 9.86 138.982 9.86V10H138.016V9.118ZM134.418 2.104V2.146C134.007 2.15533 133.69 2.27667 133.466 2.51C133.251 2.74333 133.144 3.06067 133.144 3.462V3.588H132.99V2.104H134.418ZM132.99 1.376C133.074 1.39467 133.195 1.42267 133.354 1.46C133.522 1.49733 133.704 1.53 133.9 1.558C134.105 1.57667 134.292 1.586 134.46 1.586L132.99 1.726V1.376ZM144.826 1.6V10H142.81V1.6H144.826ZM142.852 9.118V10H141.83V9.86C141.83 9.86 141.858 9.86 141.914 9.86C141.97 9.86 142.002 9.86 142.012 9.86C142.226 9.86 142.413 9.79 142.572 9.65C142.73 9.50067 142.81 9.32333 142.81 9.118H142.852ZM144.798 9.118H144.826C144.835 9.32333 144.914 9.50067 145.064 9.65C145.222 9.79 145.414 9.86 145.638 9.86C145.638 9.86 145.661 9.86 145.708 9.86C145.764 9.86 145.796 9.86 145.806 9.86V10H144.798V9.118ZM144.798 2.482V1.6H145.806L145.792 1.74C145.792 1.74 145.768 1.74 145.722 1.74C145.675 1.74 145.647 1.74 145.638 1.74C145.414 1.74 145.222 1.81 145.064 1.95C144.914 2.09 144.835 2.26733 144.826 2.482H144.798ZM142.852 2.482H142.81C142.81 2.26733 142.73 2.09 142.572 1.95C142.413 1.81 142.222 1.74 141.998 1.74C141.998 1.74 141.97 1.74 141.914 1.74C141.858 1.74 141.83 1.74 141.83 1.74V1.6H142.852V2.482Z" fill="#1E90FF"/>
</svg>
