<svg width="78" height="12" viewBox="0 0 78 12" fill="none" xmlns="http://www.w3.org/2000/svg">
<path d="M6.12555 0.978565C6.30462 0.592281 6.85374 0.592281 7.03281 0.978566L8.19948 3.49531C8.27466 3.65748 8.43068 3.76718 8.60872 3.78305L11.4665 4.03779C11.9117 4.07747 12.0852 4.63671 11.7406 4.92132L9.63761 6.65826C9.49061 6.77967 9.42546 6.97411 9.46962 7.15958L10.0873 9.7538C10.1879 10.1762 9.73929 10.5172 9.3592 10.3073L6.8209 8.90549C6.67046 8.82241 6.4879 8.82241 6.33746 8.90549L3.79915 10.3073C3.41907 10.5172 2.97046 10.1762 3.07103 9.75379L3.68874 7.15958C3.7329 6.97411 3.66774 6.77967 3.52075 6.65826L1.41779 4.92132C1.0732 4.63671 1.24665 4.07747 1.69181 4.03779L4.54963 3.78305C4.72767 3.76718 4.8837 3.65748 4.95887 3.49531L6.12555 0.978565Z" fill="#FF9901"/>
<path d="M22.1617 0.978565C22.3407 0.592281 22.8899 0.592281 23.0689 0.978566L24.2356 3.49531C24.3108 3.65748 24.4668 3.76718 24.6449 3.78305L27.5027 4.03779C27.9478 4.07747 28.1213 4.63671 27.7767 4.92132L25.6737 6.65826C25.5267 6.77967 25.4616 6.97411 25.5057 7.15958L26.1235 9.7538C26.224 10.1762 25.7754 10.5172 25.3953 10.3073L22.857 8.90549C22.7066 8.82241 22.524 8.82241 22.3736 8.90549L19.8353 10.3073C19.4552 10.5172 19.0066 10.1762 19.1072 9.75379L19.7249 7.15958C19.769 6.97411 19.7039 6.77967 19.5569 6.65826L17.4539 4.92132C17.1093 4.63671 17.2828 4.07747 17.7279 4.03779L20.5858 3.78305C20.7638 3.76718 20.9198 3.65748 20.995 3.49531L22.1617 0.978565Z" fill="#FF9901"/>
<path d="M38.1959 0.978565C38.3749 0.592281 38.9241 0.592281 39.1031 0.978566L40.2698 3.49531C40.345 3.65748 40.501 3.76718 40.679 3.78305L43.5369 4.03779C43.982 4.07747 44.1555 4.63671 43.8109 4.92132L41.7079 6.65826C41.5609 6.77967 41.4958 6.97411 41.5399 7.15958L42.1576 9.7538C42.2582 10.1762 41.8096 10.5172 41.4295 10.3073L38.8912 8.90549C38.7408 8.82241 38.5582 8.82241 38.4078 8.90549L35.8695 10.3073C35.4894 10.5172 35.0408 10.1762 35.1413 9.75379L35.7591 7.15958C35.8032 6.97411 35.7381 6.77967 35.5911 6.65826L33.4881 4.92132C33.1435 4.63671 33.317 4.07747 33.7621 4.03779L36.6199 3.78305C36.798 3.76718 36.954 3.65748 37.0292 3.49531L38.1959 0.978565Z" fill="#FF9901"/>
<path d="M54.233 0.978565C54.412 0.592281 54.9612 0.592281 55.1402 0.978566L56.3069 3.49531C56.3821 3.65748 56.5381 3.76718 56.7161 3.78305L59.574 4.03779C60.0191 4.07747 60.1926 4.63671 59.848 4.92132L57.745 6.65826C57.598 6.77967 57.5329 6.97411 57.577 7.15958L58.1947 9.7538C58.2953 10.1762 57.8467 10.5172 57.4666 10.3073L54.9283 8.90549C54.7779 8.82241 54.5953 8.82241 54.4449 8.90549L51.9066 10.3073C51.5265 10.5172 51.0779 10.1762 51.1785 9.75379L51.7962 7.15958C51.8403 6.97411 51.7752 6.77967 51.6282 6.65826L49.5252 4.92132C49.1806 4.63671 49.3541 4.07747 49.7992 4.03779L52.6571 3.78305C52.8351 3.76718 52.9911 3.65748 53.0663 3.49531L54.233 0.978565Z" fill="#FF9901"/>
<path d="M70.2672 0.978565C70.4462 0.592281 70.9953 0.592281 71.1744 0.978566L72.3411 3.49531C72.4163 3.65748 72.5723 3.76718 72.7503 3.78305L75.6081 4.03779C76.0533 4.07747 76.2268 4.63671 75.8822 4.92132L73.7792 6.65826C73.6322 6.77967 73.5671 6.97411 73.6112 7.15958L74.2289 9.7538C74.3295 10.1762 73.8809 10.5172 73.5008 10.3073L70.9625 8.90549C70.8121 8.82241 70.6295 8.82241 70.4791 8.90549L67.9408 10.3073C67.5607 10.5172 67.1121 10.1762 67.2126 9.75379L67.8303 7.15958C67.8745 6.97411 67.8093 6.77967 67.6623 6.65826L65.5594 4.92132C65.2148 4.63671 65.3882 4.07747 65.8334 4.03779L68.6912 3.78305C68.8693 3.76718 69.0253 3.65748 69.1005 3.49531L70.2672 0.978565Z" fill="#FF9901"/>
</svg>
