<svg width="32" height="32" viewBox="0 0 32 32" fill="none" xmlns="http://www.w3.org/2000/svg">
<path d="M15.9998 3C15.3748 3 14.7538 3.21 14.2188 3.594L12.5628 4.75L10.6548 5H10.6238L10.5928 5.031C9.96699 5.17231 9.39409 5.48809 8.94046 5.94171C8.48684 6.39534 8.17107 6.96824 8.02975 7.594L7.99975 7.625V7.656L7.74975 9.594L6.59375 11.094L6.56175 11.125V11.156C5.86275 12.273 5.83175 13.715 6.59375 14.781L7.78075 16.437L8.09375 18.157L4.87475 23.062L3.84375 24.594H8.62475L9.78075 27.281L10.4998 29L11.5308 27.437L14.6868 22.687C15.5348 23.035 16.4918 23.067 17.3128 22.687L20.4688 27.437L21.4998 29L22.2188 27.281L23.3748 24.594H28.1558L27.1248 23.062L23.9998 18.313L24.2498 16.438L25.4058 14.782L25.4378 14.751V14.72C26.1368 13.603 26.1678 12.192 25.4058 11.126L24.2498 9.469L23.8748 7.594H23.9058C23.9018 7.57 23.8788 7.554 23.8748 7.531C23.6948 6.223 22.6598 5.161 21.3438 5H21.3118L19.4368 4.75L17.7808 3.594C17.2636 3.21512 16.6408 3.00743 15.9998 3ZM15.9998 5.031C16.2298 5.031 16.4568 5.101 16.6248 5.219L18.4058 6.5L18.6248 6.656L18.8748 6.688L21.0628 7H21.0928C21.5428 7.05 21.8548 7.363 21.9058 7.813V7.875L22.3128 10.094L22.3428 10.313L22.4998 10.5L23.7808 12.281C24.0198 12.613 24.0508 13.176 23.7498 13.656L22.3438 15.625L22.3118 15.875L21.9998 18.063V18.093C21.9831 18.2493 21.9296 18.3994 21.8438 18.531L21.7808 18.563V18.593C21.6321 18.7715 21.419 18.884 21.1878 18.906H21.1248L18.8438 19.313L18.5938 19.343L18.4058 19.5L16.6248 20.781C16.2928 21.02 15.6988 21.051 15.2188 20.75L13.5938 19.5L13.4058 19.344L13.1248 19.312L10.9368 19H10.9068C10.7654 18.9875 10.629 18.9412 10.5093 18.865C10.3895 18.7887 10.2899 18.6848 10.2188 18.562C10.1523 18.4467 10.1098 18.3191 10.0938 18.187V18.125L9.68775 15.844L9.65575 15.594L9.49975 15.406L8.21875 13.625C7.97975 13.293 7.94875 12.699 8.24975 12.219L9.49975 10.594L9.65575 10.406L9.68675 10.125L9.96875 8.031C9.97275 8.016 9.99575 8.016 9.99975 8C10.0621 7.75928 10.1877 7.53961 10.3635 7.36377C10.5394 7.18794 10.759 7.06234 10.9998 7C11.0158 6.996 11.0158 6.973 11.0308 6.969L13.1248 6.687L13.3748 6.657L13.5938 6.5L15.3748 5.219C15.5428 5.102 15.7698 5.031 15.9998 5.031ZM22.9058 20.25L24.4378 22.594H22.0298L21.7798 23.219L21.0928 24.812L18.9678 21.562L19.4358 21.219L21.4058 20.875V20.906C21.4288 20.902 21.4438 20.879 21.4678 20.875C21.9941 20.7991 22.4913 20.5832 22.9058 20.25ZM9.09375 20.281C9.52797 20.6758 10.0735 20.9269 10.6558 21H10.6868L12.5938 21.25L13.0308 21.594L10.9058 24.812L10.2188 23.219L9.96875 22.594H7.56275L9.09375 20.281Z" fill="white"/>
</svg>
