<svg width="39" height="39" viewBox="0 0 39 39" fill="none" xmlns="http://www.w3.org/2000/svg">
<path d="M37.2969 9.58333C37.2969 9.10417 37.0563 8.74479 36.6953 8.50521L28.2734 3.71354C28.0328 3.59375 27.9125 3.59375 27.6719 3.59375C27.4312 3.59375 27.3109 3.59375 27.0703 3.71354L19.25 8.14583L11.4297 3.71354C11.1891 3.59375 11.0688 3.59375 10.8281 3.59375C10.5875 3.59375 10.4672 3.59375 10.2266 3.71354L1.80469 8.50521C1.44375 8.74479 1.20312 9.10417 1.20312 9.58333V33.5417C1.20312 34.2604 1.68437 34.7396 2.40625 34.7396C2.64688 34.7396 2.76719 34.6198 3.00781 34.6198L10.8281 30.1875L18.6484 34.6198C18.8891 34.7396 19.0094 34.7396 19.25 34.7396C19.4906 34.7396 19.6109 34.7396 19.8516 34.6198L27.6719 30.1875L35.4922 34.6198C35.6125 34.7396 35.8531 34.7396 36.0938 34.7396C36.8156 34.7396 37.2969 34.2604 37.2969 33.5417V9.58333ZM3.60938 10.3021L9.625 6.82812V28.0312L3.60938 31.5052V10.3021ZM18.0469 31.5052L12.0312 28.0312V6.82812L18.0469 10.3021V31.5052ZM26.4688 28.0312L20.4531 31.5052V10.3021L26.4688 6.82812V28.0312ZM28.875 28.0312V6.82812L34.8906 10.3021V31.5052L28.875 28.0312Z" fill="white"/>
</svg>
