<svg width="35" height="35" viewBox="0 0 35 35" fill="none" xmlns="http://www.w3.org/2000/svg">
<path d="M17.0045 21.4634C17.7839 21.4634 18.4514 21.183 19.0068 20.622C19.5614 20.0621 19.8387 19.3886 19.8387 18.6016C19.8387 17.8146 19.5614 17.1407 19.0068 16.5798C18.4514 16.0198 17.7839 15.7398 17.0045 15.7398C16.2251 15.7398 15.5582 16.0198 15.0036 16.5798C14.4481 17.1407 14.1704 17.8146 14.1704 18.6016C14.1704 19.3886 14.4481 20.0621 15.0036 20.622C15.5582 21.183 16.2251 21.4634 17.0045 21.4634ZM24.9401 28.6179L19.8741 23.5024C19.4726 23.7648 19.03 23.9675 18.5463 24.1106C18.0617 24.2537 17.5477 24.3252 17.0045 24.3252C15.4457 24.3252 14.1113 23.7648 13.0013 22.6439C11.8913 21.523 11.3362 20.1756 11.3362 18.6016C11.3362 17.0276 11.8913 15.6802 13.0013 14.5593C14.1113 13.4385 15.4457 12.878 17.0045 12.878C18.5633 12.878 19.8977 13.4385 21.0077 14.5593C22.1178 15.6802 22.6728 17.0276 22.6728 18.6016C22.6728 19.1501 22.6019 19.6629 22.4602 20.1398C22.3185 20.6168 22.1178 21.058 21.858 21.4634L25.5069 25.148V12.4846L19.9095 5.72357H8.50211V28.6179H24.9401ZM8.50211 31.4797C7.72272 31.4797 7.05575 31.1997 6.50121 30.6397C5.94571 30.0788 5.66797 29.4049 5.66797 28.6179V5.72357C5.66797 4.93658 5.94571 4.26263 6.50121 3.70172C7.05575 3.14176 7.72272 2.86179 8.50211 2.86179H19.9449C20.3701 2.86179 20.7716 2.95146 21.1494 3.13079C21.5273 3.30918 21.8462 3.56531 22.106 3.89918L27.668 10.6602C27.8569 10.9225 28.0166 11.2087 28.1469 11.5187C28.2764 11.8287 28.3411 12.1507 28.3411 12.4846V28.6179C28.3411 29.4049 28.0638 30.0788 27.5093 30.6397C26.9538 31.1997 26.2863 31.4797 25.5069 31.4797H8.50211Z" fill="white"/>
</svg>
