<svg width="34" height="34" viewBox="0 0 34 34" fill="none" xmlns="http://www.w3.org/2000/svg">
<path d="M11.7208 27.4237H10.9731C4.99103 27.4237 2 25.9282 2 18.4506V10.9731C2 4.99103 4.99103 2 10.9731 2H22.9372C28.9192 2 31.9103 4.99103 31.9103 10.9731V18.4506C31.9103 24.4327 28.9192 27.4237 22.9372 27.4237H22.1894C21.7258 27.4237 21.2772 27.6481 20.993 28.0219L18.7498 31.013C17.7627 32.329 16.1476 32.329 15.1605 31.013L12.9172 28.0219C12.678 27.6929 12.1246 27.4237 11.7208 27.4237Z" stroke="#1E90FF" stroke-width="3.33654" stroke-miterlimit="10" stroke-linecap="round" stroke-linejoin="round"/>
<path d="M22.9297 15.4598H22.943" stroke="#1E90FF" stroke-width="4.44871" stroke-linecap="round" stroke-linejoin="round"/>
<path d="M16.9492 15.4598H16.9627" stroke="#1E90FF" stroke-width="4.44871" stroke-linecap="round" stroke-linejoin="round"/>
<path d="M10.9629 15.4598H10.9764" stroke="#1E90FF" stroke-width="4.44871" stroke-linecap="round" stroke-linejoin="round"/>
</svg>
