<svg width="29" height="30" viewBox="0 0 29 30" fill="none" xmlns="http://www.w3.org/2000/svg">
<path d="M15.0862 28.1256L15.0861 28.1256L15.0757 28.1291C14.8922 28.1914 14.5445 28.25 14.1179 28.25C13.6897 28.25 13.3504 28.1909 13.1804 28.1322L13.1706 28.1288L13.1608 28.1256L8.37896 26.5366C8.37872 26.5365 8.37848 26.5365 8.37823 26.5364C7.8916 26.374 7.35708 25.976 6.93663 25.3919C6.51616 24.8078 6.30664 24.1719 6.30664 23.6533V22.1683L8.99087 23.9143C10.5107 24.9302 12.36 25.3883 14.1385 25.3883C15.918 25.3883 17.7684 24.9297 19.2886 23.9126L21.9403 22.1753V23.6533C21.9403 24.1677 21.73 24.8029 21.3063 25.3898C20.8828 25.9762 20.3469 26.3749 19.8662 26.5372C19.8654 26.5375 19.8646 26.5378 19.8638 26.538L15.0862 28.1256Z" stroke="#1E90FF" stroke-width="3.5"/>
<path d="M26.242 12.1198V12.487L24.7818 13.4462L22.7284 14.7952L22.7275 14.7958L16.1456 19.1137L16.1442 19.1147C15.6821 19.4185 14.9648 19.6255 14.1515 19.6255C13.3382 19.6255 12.621 19.4185 12.1588 19.1146L12.1529 19.1108L5.52511 14.7922L5.52347 14.7911L3.1272 13.2335C3.12675 13.2333 3.12631 13.233 3.12587 13.2327C1.28671 12.0307 1.29738 9.34203 3.12185 8.16038L3.12186 8.16039L3.12717 8.15692L12.1541 2.26387L12.1541 2.26387L12.1588 2.26079C12.621 1.95699 13.3382 1.75 14.1515 1.75C14.9648 1.75 15.6821 1.95699 16.1442 2.26079L16.1456 2.26167L25.1249 8.15296C25.1254 8.15327 25.1258 8.15358 25.1263 8.15389C26.3 8.92792 26.7129 10.3358 26.3205 11.6015L26.242 11.8547V12.1198Z" stroke="#1E90FF" stroke-width="3.5"/>
</svg>
